<?xml version="1.0" encoding="UTF-8" standalone="no"?>
<svg
   xmlns:dc="http://purl.org/dc/elements/1.1/"
   xmlns:cc="http://creativecommons.org/ns#"
   xmlns:rdf="http://www.w3.org/1999/02/22-rdf-syntax-ns#"
   xmlns:svg="http://www.w3.org/2000/svg"
   xmlns="http://www.w3.org/2000/svg"
   xmlns:xlink="http://www.w3.org/1999/xlink"
   xmlns:sodipodi="http://sodipodi.sourceforge.net/DTD/sodipodi-0.dtd"
   xmlns:inkscape="http://www.inkscape.org/namespaces/inkscape"
   id="svg1772"
   sodipodi:docname="appointment-queue.svg"
   inkscape:export-filename="/home/joanna/gfx/vector/aiga/aiga_waiting_room_.png"
   viewBox="0 0 48 48"
   sodipodi:version="0.32"
   inkscape:export-xdpi="38.84103"
   inkscape:output_extension="org.inkscape.output.svg.inkscape"
   inkscape:export-ydpi="38.84103"
   inkscape:version="0.48.5 r10040"
   version="1.1"
   width="100%"
   height="100%">
  <defs
     id="defs22">
    <linearGradient
       y2="38.329399"
       x2="73.863899"
       y1="86.050797"
       x1="26.142599"
       gradientUnits="userSpaceOnUse"
       id="linearGradient3802">
      <stop
         id="stop3804"
         style="stop-color:#34a6ae;stop-opacity:1;"
         offset="0" />
      <stop
         id="stop3806"
         style="stop-color:#046973;stop-opacity:1;"
         offset="1" />
    </linearGradient>
    <linearGradient
       id="SVGID_1_"
       gradientUnits="userSpaceOnUse"
       x1="26.142599"
       y1="86.050797"
       x2="73.863899"
       y2="38.329399">
      <stop
         offset="0"
         style="stop-color:#046973"
         id="stop4" />
      <stop
         offset="1"
         style="stop-color:#34A6AE"
         id="stop6" />
    </linearGradient>
    <linearGradient
       gradientTransform="translate(610.27933,-171.32615)"
       y2="38.329399"
       x2="73.863899"
       y1="86.050797"
       x1="26.142599"
       gradientUnits="userSpaceOnUse"
       id="linearGradient3022"
       xlink:href="#linearGradient3802"
       inkscape:collect="always" />
    <linearGradient
       inkscape:collect="always"
       xlink:href="#linearGradient3802"
       id="linearGradient3814"
       x1="45.256767"
       y1="284.44669"
       x2="204.62411"
       y2="111.69865"
       gradientUnits="userSpaceOnUse" />
    <linearGradient
       inkscape:collect="always"
       xlink:href="#linearGradient3802"
       id="linearGradient3832"
       x1="34.229"
       y1="48.652"
       x2="131.53"
       y2="48.652"
       gradientUnits="userSpaceOnUse" />
    <linearGradient
       inkscape:collect="always"
       xlink:href="#linearGradient3802"
       id="linearGradient3005"
       gradientUnits="userSpaceOnUse"
       x1="34.229"
       y1="48.652"
       x2="131.53"
       y2="48.652" />
    <linearGradient
       inkscape:collect="always"
       xlink:href="#linearGradient3802"
       id="linearGradient3007"
       gradientUnits="userSpaceOnUse"
       x1="34.229"
       y1="48.652"
       x2="131.53"
       y2="48.652" />
  </defs>
  <sodipodi:namedview
     id="base"
     bordercolor="#666666"
     inkscape:pageshadow="2"
     inkscape:window-width="961"
     pagecolor="#ffffff"
     inkscape:zoom="3.4732669"
     inkscape:window-x="1875"
     showgrid="false"
     borderopacity="1.0"
     inkscape:current-layer="svg1772"
     inkscape:cx="60.995389"
     inkscape:cy="26.404397"
     inkscape:window-y="114"
     inkscape:window-height="680"
     inkscape:pageopacity="0.0"
     inkscape:window-maximized="0" />
  <g
     id="g3859"
     transform="matrix(0.09891877,0,0,0.09891877,6.4656513,1.0694735)">
    <g
       id="g3853">
      <g
         id="g1786"
         style="fill:url(#linearGradient3832);fill-opacity:1">
        <path
           id="path1788"
           style="fill:url(#linearGradient3005);fill-opacity:1"
           d="M 82.882,97.304 C 109.75,97.304 131.53,75.52 131.53,48.653 131.53,21.784 109.75,0 82.882,0 56.012,0 34.229,21.784 34.229,48.653 c 0,26.867 21.783,48.651 48.653,48.651 z"
           inkscape:connector-curvature="0" />
        <path
           id="path1790"
           style="fill:url(#linearGradient3007);fill-opacity:1"
           d="M 82.882,48.653"
           inkscape:connector-curvature="0" />
      </g>
      <path
         id="path1792"
         style="fill:url(#linearGradient3814);fill-opacity:1"
         d="m 45.918,156.49 c -8.75,-56 72.002,-73.003 85.002,-15.75 l 22,109.67 82.08,0.17 c 23.96,0 36.42,19.17 36.42,36.91 v 149.12 c 0,36.21 -51.56,36.04 -51.56,-0.65 V 319.91 H 115.03 c -24.445,0 -39.781,-16.78 -43.615,-35.95 L 45.918,156.49 z"
         inkscape:connector-curvature="0" />
    </g>
    <path
       inkscape:connector-curvature="0"
       d="m 181.42,329.7 c 27.23,0 27.1,40.29 0.37,40.29 h -75.27 c -36.602,0 -73.102,-27.5 -82.65,-70 l -23.452,-114 c -4.7532,-25.89 32.5,-34.5 38,-8 l 22.24,109.06 c 6.23,27.8 26.838,42.65 51.762,42.65 h 69 z"
       style="fill:#046973;fill-opacity:1"
       id="path1794" />
    <g
       id="g3844">
      <path
         id="path1798"
         style="fill:#000000"
         d="m 283.26,81.519 36.2,-17.547 c 5.22,-2.349 1.83,-9.917 -3.65,-7.489 L 285.04,70.338 V 33.936 c 0,-5.716 -8.63,-5.454 -8.63,0 l 0.13,43.604 c 0,3.26 3.52,5.609 6.72,3.979 z"
         inkscape:connector-curvature="0" />
      <path
         inkscape:connector-curvature="0"
         d="m 283.4,144.28 c 39.28,0 71.12,-31.84 71.12,-71.124 0,-39.28 -31.84,-71.124 -71.12,-71.124 -39.28,0 -71.13,31.844 -71.13,71.124 0,39.284 31.85,71.124 71.13,71.124 z"
         style="fill:#046973;fill-opacity:1"
         id="path1802" />
      <path
         inkscape:connector-curvature="0"
         d="M 283.4,73.156"
         style="fill:#000000"
         id="path1804" />
      <g
         id="g1806">
        <path
           id="path1808"
           style="fill:#ffffff"
           d="m 283.4,132.2 c 32.61,0 59.04,-26.44 59.04,-59.044 0,-32.61 -26.43,-59.045 -59.04,-59.045 -32.61,0 -59.05,26.435 -59.05,59.045 0,32.604 26.44,59.044 59.05,59.044 z"
           inkscape:connector-curvature="0" />
        <path
           id="path1810"
           style="fill:#ffffff"
           d="M 283.4,73.156"
           inkscape:connector-curvature="0" />
      </g>
      <path
         id="path1812"
         style="fill:#046973;fill-opacity:1"
         d="m 283.26,81.519 36.2,-17.547 c 5.22,-2.349 1.83,-9.917 -3.65,-7.489 L 285.04,70.338 V 33.936 c 0,-5.716 -8.63,-5.454 -8.63,0 l 0.13,43.604 c 0,3.26 3.52,5.609 6.72,3.979 z"
         inkscape:connector-curvature="0" />
    </g>
  </g>
  <metadata
     id="metadata20">
    <rdf:RDF>
      <cc:Work>
        <dc:format>image/svg+xml</dc:format>
        <dc:type
           rdf:resource="http://purl.org/dc/dcmitype/StillImage" />
        <cc:license
           rdf:resource="http://creativecommons.org/licenses/publicdomain/" />
        <dc:publisher>
          <cc:Agent
             rdf:about="http://openclipart.org/">
            <dc:title>Openclipart</dc:title>
          </cc:Agent>
        </dc:publisher>
        <dc:title>aiga waiting room</dc:title>
        <dc:date>2009-04-22T06:40:45</dc:date>
        <dc:description>Set of international airport symbols.
\n
\nSource: http://www.aiga.org/content.cfm/symbol-signs
\n
\nConverted to SVG by Jean-Victor Balin.</dc:description>
        <dc:source>https://openclipart.org/detail/25236/aiga-waiting-room-by-anonymous-25236</dc:source>
        <dc:creator>
          <cc:Agent>
            <dc:title>Anonymous</dc:title>
          </cc:Agent>
        </dc:creator>
        <dc:subject>
          <rdf:Bag>
            <rdf:li>aiga</rdf:li>
            <rdf:li>aiga no bg</rdf:li>
            <rdf:li>black and white</rdf:li>
            <rdf:li>clock</rdf:li>
            <rdf:li>externalsource</rdf:li>
            <rdf:li>icon</rdf:li>
            <rdf:li>man</rdf:li>
            <rdf:li>map symbol</rdf:li>
            <rdf:li>sign</rdf:li>
            <rdf:li>silhouette</rdf:li>
            <rdf:li>sitting</rdf:li>
            <rdf:li>symbol</rdf:li>
            <rdf:li>waiting</rdf:li>
          </rdf:Bag>
        </dc:subject>
      </cc:Work>
      <cc:License
         rdf:about="http://creativecommons.org/licenses/publicdomain/">
        <cc:permits
           rdf:resource="http://creativecommons.org/ns#Reproduction" />
        <cc:permits
           rdf:resource="http://creativecommons.org/ns#Distribution" />
        <cc:permits
           rdf:resource="http://creativecommons.org/ns#DerivativeWorks" />
      </cc:License>
    </rdf:RDF>
  </metadata>
</svg>
